<mxfile host="app.diagrams.net" modified="2023-05-13T15:28:56.924Z" agent="Mozilla/5.0 (Windows NT 10.0; Win64; x64) AppleWebKit/537.36 (KHTML, like Gecko) Chrome/113.0.0.0 Safari/537.36" etag="ipI2DFunBj-GD_8QpIcM" version="21.2.8" type="github">
  <diagram name="Page-1" id="kUGmlVv1KhsbOFP3ll0R">
    <mxGraphModel dx="4919" dy="3451" grid="1" gridSize="10" guides="1" tooltips="1" connect="1" arrows="1" fold="1" page="1" pageScale="1" pageWidth="850" pageHeight="1100" background="#ffffff" math="0" shadow="0">
      <root>
        <mxCell id="0" />
        <mxCell id="1" parent="0" />
        <mxCell id="dBY3GIxtA57VVu_agjdJ-13" value="" style="rounded=0;whiteSpace=wrap;html=1;strokeWidth=3;strokeColor=#0062ff;fontSize=19;fontStyle=1" parent="1" vertex="1">
          <mxGeometry x="-1520" y="-1610" width="420" height="380" as="geometry" />
        </mxCell>
        <mxCell id="bPXmLajMAszRdR5mvz4N-5" value="" style="rounded=0;whiteSpace=wrap;html=1;strokeWidth=3;strokeColor=#0062ff;fontSize=19;fontStyle=1" parent="1" vertex="1">
          <mxGeometry x="-1520" y="-2110" width="420" height="420" as="geometry" />
        </mxCell>
        <mxCell id="BCT4acggiIJb0DLnrBcZ-119" value="Router1" style="image;html=1;image=img/lib/clip_art/networking/Router_128x128.png;fontSize=19;fontStyle=1" parent="1" vertex="1">
          <mxGeometry x="-810" y="-1729" width="80" height="80" as="geometry" />
        </mxCell>
        <mxCell id="bPXmLajMAszRdR5mvz4N-10" value="&lt;p class=&quot;MsoNormal&quot; style=&quot;&quot;&gt;Subnet1 - 36.26.1.0/24 &lt;i style=&quot;&quot;&gt;&lt;font style=&quot;font-size: 18px; font-weight: normal;&quot;&gt;/Tamir Enkhsaikhan Studen id 1222&lt;font color=&quot;#33ff33&quot;&gt;3626&lt;/font&gt;/&lt;/font&gt;&lt;/i&gt;&lt;/p&gt;" style="text;html=1;strokeColor=none;fillColor=none;align=center;verticalAlign=middle;whiteSpace=wrap;rounded=0;fontSize=24;fontStyle=1" parent="1" vertex="1">
          <mxGeometry x="-1720" y="-2150" width="820" height="30" as="geometry" />
        </mxCell>
        <mxCell id="dBY3GIxtA57VVu_agjdJ-7" value="PC1&lt;br style=&quot;border-color: var(--border-color); color: rgb(0, 102, 204); background-color: rgb(251, 251, 251);&quot;&gt;&lt;span style=&quot;color: rgb(0, 102, 204); background-color: rgb(251, 251, 251);&quot;&gt;36.26.1.10&lt;/span&gt;" style="image;points=[];aspect=fixed;html=1;align=center;shadow=0;dashed=0;image=img/lib/allied_telesis/computer_and_terminals/Personal_Computer_with_Server.svg;" parent="1" vertex="1">
          <mxGeometry x="-1440" y="-2070" width="62.400000000000006" height="62.400000000000006" as="geometry" />
        </mxCell>
        <mxCell id="dBY3GIxtA57VVu_agjdJ-27" style="edgeStyle=orthogonalEdgeStyle;rounded=0;orthogonalLoop=1;jettySize=auto;html=1;endArrow=none;endFill=0;" parent="1" source="dBY3GIxtA57VVu_agjdJ-9" target="dBY3GIxtA57VVu_agjdJ-12" edge="1">
          <mxGeometry relative="1" as="geometry" />
        </mxCell>
        <mxCell id="dBY3GIxtA57VVu_agjdJ-9" value="PC2&lt;br style=&quot;border-color: var(--border-color); background-color: rgb(251, 251, 251);&quot;&gt;&lt;span style=&quot;background-color: rgb(251, 251, 251);&quot;&gt;36.26.1.11&lt;/span&gt;" style="image;points=[];aspect=fixed;html=1;align=center;shadow=0;dashed=0;image=img/lib/allied_telesis/computer_and_terminals/Personal_Computer_with_Server.svg;fontColor=#000000;fontStyle=1" parent="1" vertex="1">
          <mxGeometry x="-1440" y="-1957.4" width="62.400000000000006" height="62.400000000000006" as="geometry" />
        </mxCell>
        <mxCell id="dBY3GIxtA57VVu_agjdJ-28" style="rounded=0;orthogonalLoop=1;jettySize=auto;html=1;endArrow=none;endFill=0;" parent="1" source="dBY3GIxtA57VVu_agjdJ-10" target="dBY3GIxtA57VVu_agjdJ-12" edge="1">
          <mxGeometry relative="1" as="geometry" />
        </mxCell>
        <mxCell id="dBY3GIxtA57VVu_agjdJ-10" value="PC3&lt;br style=&quot;border-color: var(--border-color); background-color: rgb(251, 251, 251);&quot;&gt;&lt;span style=&quot;background-color: rgb(251, 251, 251);&quot;&gt;36.26.1.12&lt;/span&gt;" style="image;points=[];aspect=fixed;html=1;align=center;shadow=0;dashed=0;image=img/lib/allied_telesis/computer_and_terminals/Personal_Computer_with_Server.svg;fontColor=#000000;fontStyle=1" parent="1" vertex="1">
          <mxGeometry x="-1440" y="-1840" width="62.400000000000006" height="62.400000000000006" as="geometry" />
        </mxCell>
        <mxCell id="dBY3GIxtA57VVu_agjdJ-31" style="edgeStyle=orthogonalEdgeStyle;rounded=0;orthogonalLoop=1;jettySize=auto;html=1;entryX=1;entryY=0.5;entryDx=0;entryDy=0;strokeWidth=4;endArrow=none;endFill=0;dashed=1;" parent="1" source="dBY3GIxtA57VVu_agjdJ-12" target="dBY3GIxtA57VVu_agjdJ-18" edge="1">
          <mxGeometry relative="1" as="geometry">
            <Array as="points">
              <mxPoint x="-1240" y="-1440" />
            </Array>
          </mxGeometry>
        </mxCell>
        <mxCell id="gmeclrbOb9PSzpo6kKaP-2" style="edgeStyle=orthogonalEdgeStyle;rounded=0;orthogonalLoop=1;jettySize=auto;html=1;strokeWidth=3;endArrow=none;endFill=0;" edge="1" parent="1" source="dBY3GIxtA57VVu_agjdJ-12" target="BCT4acggiIJb0DLnrBcZ-119">
          <mxGeometry relative="1" as="geometry" />
        </mxCell>
        <mxCell id="dBY3GIxtA57VVu_agjdJ-12" value="Swich1" style="image;html=1;image=img/lib/clip_art/networking/Switch_128x128.png;fontStyle=1;fontColor=#000000;" parent="1" vertex="1">
          <mxGeometry x="-1280" y="-1966.2" width="80" height="80" as="geometry" />
        </mxCell>
        <mxCell id="dBY3GIxtA57VVu_agjdJ-14" value="&lt;p class=&quot;MsoNormal&quot; style=&quot;&quot;&gt;&lt;span style=&quot;font-size: 24px;&quot;&gt;Subnet1 - 81.79.1.0/24 &lt;/span&gt;&lt;font style=&quot;font-size: 18px;&quot;&gt;&lt;i style=&quot;font-weight: normal;&quot;&gt;/Bikram Shrestha 1221&lt;font color=&quot;#33ff33&quot;&gt;8179&lt;/font&gt;/&lt;/i&gt;&lt;/font&gt;&lt;/p&gt;" style="text;html=1;strokeColor=none;fillColor=none;align=left;verticalAlign=middle;whiteSpace=wrap;rounded=0;fontSize=24;fontStyle=1" parent="1" vertex="1">
          <mxGeometry x="-1560" y="-1649" width="500" height="30" as="geometry" />
        </mxCell>
        <mxCell id="dBY3GIxtA57VVu_agjdJ-29" style="rounded=0;orthogonalLoop=1;jettySize=auto;html=1;entryX=0;entryY=0.5;entryDx=0;entryDy=0;endArrow=none;endFill=0;" parent="1" source="dBY3GIxtA57VVu_agjdJ-15" target="dBY3GIxtA57VVu_agjdJ-18" edge="1">
          <mxGeometry relative="1" as="geometry" />
        </mxCell>
        <mxCell id="dBY3GIxtA57VVu_agjdJ-15" value="PC4&lt;br style=&quot;border-color: var(--border-color); background-color: rgb(251, 251, 251);&quot;&gt;&lt;span style=&quot;background-color: rgb(251, 251, 251);&quot;&gt;81.79.1.10&lt;/span&gt;" style="image;points=[];aspect=fixed;html=1;align=center;shadow=0;dashed=0;image=img/lib/allied_telesis/computer_and_terminals/Personal_Computer_with_Server.svg;fontStyle=1;fontColor=#000000;" parent="1" vertex="1">
          <mxGeometry x="-1440" y="-1551.8" width="62.400000000000006" height="62.400000000000006" as="geometry" />
        </mxCell>
        <mxCell id="dBY3GIxtA57VVu_agjdJ-30" style="rounded=0;orthogonalLoop=1;jettySize=auto;html=1;entryX=0;entryY=0.5;entryDx=0;entryDy=0;endArrow=none;endFill=0;" parent="1" source="dBY3GIxtA57VVu_agjdJ-16" target="dBY3GIxtA57VVu_agjdJ-18" edge="1">
          <mxGeometry relative="1" as="geometry" />
        </mxCell>
        <mxCell id="dBY3GIxtA57VVu_agjdJ-16" value="PC5&lt;span style=&quot;background-color: rgb(255, 255, 255);&quot;&gt;&lt;br&gt;&lt;/span&gt;81.79&lt;span style=&quot;background-color: rgb(251, 251, 251);&quot;&gt;.1.11&lt;/span&gt;" style="image;points=[];aspect=fixed;html=1;align=center;shadow=0;dashed=0;image=img/lib/allied_telesis/computer_and_terminals/Personal_Computer_with_Server.svg;fontColor=#000000;fontStyle=1" parent="1" vertex="1">
          <mxGeometry x="-1440" y="-1370" width="62.400000000000006" height="62.400000000000006" as="geometry" />
        </mxCell>
        <mxCell id="gmeclrbOb9PSzpo6kKaP-3" style="edgeStyle=orthogonalEdgeStyle;rounded=0;orthogonalLoop=1;jettySize=auto;html=1;strokeWidth=3;endArrow=none;endFill=0;" edge="1" parent="1" source="dBY3GIxtA57VVu_agjdJ-18" target="BCT4acggiIJb0DLnrBcZ-119">
          <mxGeometry relative="1" as="geometry" />
        </mxCell>
        <mxCell id="dBY3GIxtA57VVu_agjdJ-18" value="Swich2" style="image;html=1;image=img/lib/clip_art/networking/Switch_128x128.png;fontColor=#000000;fontStyle=1" parent="1" vertex="1">
          <mxGeometry x="-1280" y="-1480" width="80" height="80" as="geometry" />
        </mxCell>
        <mxCell id="dBY3GIxtA57VVu_agjdJ-26" style="rounded=0;orthogonalLoop=1;jettySize=auto;html=1;endArrow=none;endFill=0;" parent="1" source="dBY3GIxtA57VVu_agjdJ-24" target="dBY3GIxtA57VVu_agjdJ-12" edge="1">
          <mxGeometry relative="1" as="geometry" />
        </mxCell>
        <mxCell id="dBY3GIxtA57VVu_agjdJ-24" value="PC1&lt;br style=&quot;border-color: var(--border-color); background-color: rgb(251, 251, 251);&quot;&gt;&lt;span style=&quot;background-color: rgb(251, 251, 251);&quot;&gt;36.26.1.10&lt;/span&gt;" style="image;points=[];aspect=fixed;html=1;align=center;shadow=0;dashed=0;image=img/lib/allied_telesis/computer_and_terminals/Personal_Computer_with_Server.svg;fontColor=#000000;fontStyle=1" parent="1" vertex="1">
          <mxGeometry x="-1440" y="-2070" width="62.400000000000006" height="62.400000000000006" as="geometry" />
        </mxCell>
        <mxCell id="dBY3GIxtA57VVu_agjdJ-37" style="rounded=0;orthogonalLoop=1;jettySize=auto;html=1;endArrow=none;endFill=0;strokeWidth=3;entryX=1;entryY=0.5;entryDx=0;entryDy=0;" parent="1" source="dBY3GIxtA57VVu_agjdJ-25" target="BCT4acggiIJb0DLnrBcZ-119" edge="1">
          <mxGeometry relative="1" as="geometry" />
        </mxCell>
        <mxCell id="gmeclrbOb9PSzpo6kKaP-6" style="edgeStyle=orthogonalEdgeStyle;rounded=0;orthogonalLoop=1;jettySize=auto;html=1;strokeWidth=3;endArrow=none;endFill=0;" edge="1" parent="1" source="dBY3GIxtA57VVu_agjdJ-25" target="gmeclrbOb9PSzpo6kKaP-4">
          <mxGeometry relative="1" as="geometry">
            <Array as="points">
              <mxPoint x="-425" y="-1690" />
            </Array>
          </mxGeometry>
        </mxCell>
        <mxCell id="dBY3GIxtA57VVu_agjdJ-25" value="Router2" style="image;html=1;image=img/lib/clip_art/networking/Router_128x128.png;fontSize=19;fontStyle=1" parent="1" vertex="1">
          <mxGeometry x="-570" y="-1730" width="80" height="80" as="geometry" />
        </mxCell>
        <mxCell id="gmeclrbOb9PSzpo6kKaP-4" value="" style="image;aspect=fixed;perimeter=ellipsePerimeter;html=1;align=center;shadow=0;dashed=0;spacingTop=3;image=img/lib/active_directory/internet_cloud.svg;" vertex="1" parent="1">
          <mxGeometry x="-570" y="-2017.5500000000002" width="290" height="182.7" as="geometry" />
        </mxCell>
        <mxCell id="gmeclrbOb9PSzpo6kKaP-7" value="36.26.1.0/24" style="text;html=1;strokeColor=none;fillColor=none;align=center;verticalAlign=middle;whiteSpace=wrap;rounded=0;fontSize=17;fontStyle=1" vertex="1" parent="1">
          <mxGeometry x="-920" y="-1957.4" width="60" height="30" as="geometry" />
        </mxCell>
        <mxCell id="gmeclrbOb9PSzpo6kKaP-8" value="81.79.1.0/24" style="text;html=1;strokeColor=none;fillColor=none;align=center;verticalAlign=middle;whiteSpace=wrap;rounded=0;strokeWidth=4;fontSize=17;fontStyle=1" vertex="1" parent="1">
          <mxGeometry x="-915" y="-1466" width="60" height="30" as="geometry" />
        </mxCell>
        <mxCell id="gmeclrbOb9PSzpo6kKaP-11" value="20.20.20/24" style="text;html=1;strokeColor=none;fillColor=none;align=center;verticalAlign=middle;whiteSpace=wrap;rounded=0;strokeWidth=4;fontSize=17;fontStyle=1" vertex="1" parent="1">
          <mxGeometry x="-670" y="-1720" width="60" height="30" as="geometry" />
        </mxCell>
        <mxCell id="gmeclrbOb9PSzpo6kKaP-12" value="30.30.30/24" style="text;html=1;strokeColor=none;fillColor=none;align=center;verticalAlign=middle;whiteSpace=wrap;rounded=0;strokeWidth=4;fontSize=17;fontStyle=1" vertex="1" parent="1">
          <mxGeometry x="-401" y="-1773" width="60" height="30" as="geometry" />
        </mxCell>
        <mxCell id="gmeclrbOb9PSzpo6kKaP-13" value=".01" style="text;html=1;strokeColor=none;fillColor=none;align=center;verticalAlign=middle;whiteSpace=wrap;rounded=0;fontSize=17;fontStyle=1" vertex="1" parent="1">
          <mxGeometry x="-820" y="-1610" width="60" height="30" as="geometry" />
        </mxCell>
        <mxCell id="gmeclrbOb9PSzpo6kKaP-14" value=".01" style="text;html=1;strokeColor=none;fillColor=none;align=center;verticalAlign=middle;whiteSpace=wrap;rounded=0;fontSize=17;fontStyle=1" vertex="1" parent="1">
          <mxGeometry x="-820" y="-1759" width="60" height="30" as="geometry" />
        </mxCell>
      </root>
    </mxGraphModel>
  </diagram>
</mxfile>
